name rise36.2859peak64.2979fall75.1499.mot
datacolumns 19
datarows 17
range 18.65493200000000 18.68159800000000
endheader
time	ground_force1_vx	ground_force1_vy	ground_force1_vz	ground_force1_px	ground_force1_py	ground_force1_pz	ground_force2_vx	ground_force2_vy	ground_force2_vz	ground_force2_px	ground_force2_py	ground_force2_pz	ground_torque1_x	ground_torque1_y	ground_torque1_z	ground_torque2_x	ground_torque2_y	ground_torque2_z	
18.65493200000000	-27.90936700000000	792.11324700000000	58.05421800000000	0.23382100000000	0.00000000000000	0.08527800000000	-7.03036200000000	27.42090700000000	2.13189500000000	0.37116900000000	0.00000000000000	-0.10740700000000	0.00000000000000	33.13961500000000	0.00000000000000	0.00000000000000	0.32850800000000	0.00000000000000	
18.65660100000000	-28.23859900000000	790.66582700000004	57.98446100000000	0.23278300000000	0.00000000000000	0.08525100000000	-8.23840000000000	33.81941900000000	2.54031100000000	0.37595500000000	0.00000000000000	-0.10768800000000	0.00000000000000	33.01752900000000	0.00000000000000	0.00000000000000	0.43276500000000	0.00000000000000	
18.65826300000000	-28.57637900000000	789.09506899999997	57.89011100000000	0.23174500000000	0.00000000000000	0.08522100000000	-9.37614300000000	40.50380200000000	2.94004400000000	0.38042600000000	0.00000000000000	-0.10793300000000	0.00000000000000	32.88663900000000	0.00000000000000	0.00000000000000	0.54793500000000	0.00000000000000	
18.65993300000000	-28.92308800000000	787.39904999999999	57.77064600000000	0.23070800000000	0.00000000000000	0.08518700000000	-10.40309300000000	47.35302000000000	3.31906600000000	0.38462600000000	0.00000000000000	-0.10814700000000	0.00000000000000	32.74695600000000	0.00000000000000	0.00000000000000	0.67206000000000	0.00000000000000	
18.66160000000000	-29.27906400000000	785.57591700000000	57.62558700000000	0.22967200000000	0.00000000000000	0.08514900000000	-11.28555100000000	54.25737500000000	3.66692000000000	0.38858900000000	0.00000000000000	-0.10833800000000	0.00000000000000	32.59850400000000	0.00000000000000	0.00000000000000	0.80296100000000	0.00000000000000	
18.66326300000000	-29.64460300000000	783.62387999999999	57.45450700000000	0.22863700000000	0.00000000000000	0.08510700000000	-11.99841700000000	61.12567200000000	3.97528800000000	0.39234200000000	0.00000000000000	-0.10850900000000	0.00000000000000	32.44132200000000	0.00000000000000	0.00000000000000	0.93838100000000	0.00000000000000	
18.66493300000000	-30.01995200000000	781.54121599999996	57.25702400000000	0.22760500000000	0.00000000000000	0.08506100000000	-12.52605100000000	67.88984000000001	4.23830200000000	0.39590800000000	0.00000000000000	-0.10866400000000	0.00000000000000	32.27546300000000	0.00000000000000	0.00000000000000	1.07611500000000	0.00000000000000	
18.66659400000000	-30.40531100000000	779.32627000000002	57.03281100000000	0.22657500000000	0.00000000000000	0.08501100000000	-12.86223500000000	74.50692500000000	4.45260100000000	0.39930800000000	0.00000000000000	-0.10880600000000	0.00000000000000	32.10099200000000	0.00000000000000	0.00000000000000	1.21411800000000	0.00000000000000	
18.66826300000000	-30.80082400000000	776.97744599999999	56.78159100000000	0.22554800000000	0.00000000000000	0.08495700000000	-13.00937000000000	80.95869200000000	4.61717900000000	0.40255800000000	0.00000000000000	-0.10893700000000	0.00000000000000	31.91798800000000	0.00000000000000	0.00000000000000	1.35057200000000	0.00000000000000	
18.66992600000000	-31.20658500000000	774.49321499999996	56.50314400000000	0.22452400000000	0.00000000000000	0.08489800000000	-12.97710300000000	87.24925399999999	4.73306600000000	0.40567200000000	0.00000000000000	-0.10905900000000	0.00000000000000	31.72654400000000	0.00000000000000	0.00000000000000	1.48393100000000	0.00000000000000	
18.67159200000000	-31.62262800000000	771.87210900000002	56.19730300000000	0.22350400000000	0.00000000000000	0.08483500000000	-12.78060200000000	93.40126800000000	4.80289100000000	0.40866200000000	0.00000000000000	-0.10917300000000	0.00000000000000	31.52676600000000	0.00000000000000	0.00000000000000	1.61292900000000	0.00000000000000	
18.67325900000000	-32.04893000000000	769.11272199999996	55.86395900000000	0.22248800000000	0.00000000000000	0.08476700000000	-12.43867200000000	99.45127300000000	4.83039600000000	0.41154000000000	0.00000000000000	-0.10928200000000	0.00000000000000	31.31877000000000	0.00000000000000	0.00000000000000	1.73656300000000	0.00000000000000	
18.67492900000000	-32.48540700000000	766.21370800000000	55.50305700000000	0.22147700000000	0.00000000000000	0.08469500000000	-11.97190200000000	105.44468400000000	4.81993700000000	0.41431500000000	0.00000000000000	-0.10938500000000	0.00000000000000	31.10268500000000	0.00000000000000	0.00000000000000	1.85405500000000	0.00000000000000	
18.67659700000000	-32.93191300000000	763.17378299999996	55.11460400000000	0.22047200000000	0.00000000000000	0.08461900000000	-11.40098600000000	111.43093500000001	4.77603000000000	0.41699400000000	0.00000000000000	-0.10948400000000	0.00000000000000	30.87865100000000	0.00000000000000	0.00000000000000	1.96480600000000	0.00000000000000	
18.67826300000000	-33.38823700000000	759.99172099999998	54.69866200000000	0.21947300000000	0.00000000000000	0.08453800000000	-10.74532500000000	117.45910900000000	4.70295500000000	0.41958600000000	0.00000000000000	-0.10957900000000	0.00000000000000	30.64681900000000	0.00000000000000	0.00000000000000	2.06833600000000	0.00000000000000	
18.67993100000000	-33.85410300000000	756.66635699999995	54.25535300000000	0.21848000000000	0.00000000000000	0.08445200000000	-10.02196700000000	123.57433200000000	4.60445300000000	0.42209700000000	0.00000000000000	-0.10967200000000	0.00000000000000	30.40734700000000	0.00000000000000	0.00000000000000	2.16423200000000	0.00000000000000	
18.68159800000000	-34.32916800000000	753.19658700000002	53.78485800000000	0.21749600000000	0.00000000000000	0.08436100000000	-9.24490900000000	129.81506200000001	4.48351000000000	0.42453100000000	0.00000000000000	-0.10976200000000	0.00000000000000	30.16040600000000	0.00000000000000	0.00000000000000	2.25209200000000	0.00000000000000	
